<svg xmlns="http://www.w3.org/2000/svg" width="677.108" height="987.186" viewBox="0 0 677.108 987.186">
  <g id="Knife" transform="translate(-1.918 -284.48)">
    <g id="g6013" transform="translate(1.918 284.48)">
      <g id="g5972-1-9-8-5-2" transform="translate(516.384 0) rotate(30)">
        <g id="g5965-4-5-5-4-2" transform="translate(9.415 9.421)">
          <path id="path5457-5-9-0-9-7-6" d="M166.737,0C69.786,28,.109,148.709,0,288.848c.031,90.7,29.505,176.34,79.931,232.248v461.69a31.059,31.059,0,0,0,31.129,31.129H135.6a31.067,31.067,0,0,0,31.139-31.129V0Z" transform="translate(0 0)" fill="#bababa"/>
          <path id="path5896-2-4-7-6-1" d="M12.819.016a9.422,9.422,0,0,0-8.8,8.059S-20.349,152.7,50.872,241.063A9.423,9.423,0,0,0,65.556,229.25C2.172,150.607,22.645,11.019,22.645,11.019a9.423,9.423,0,0,0-9.826-11Z" transform="translate(28.107 227.107)" fill="#f3efef" fill-rule="evenodd"/>
          <path id="path5898-0-8-5-5-0" d="M9.275,0A9.423,9.423,0,0,0,0,9.569V435.8a9.422,9.422,0,1,0,18.843,0V9.569A9.423,9.423,0,0,0,9.275,0Z" transform="translate(101.839 529.958)" fill="#f3efef" fill-rule="evenodd"/>
        </g>
        <path id="path5457-5-7-6-7-3-6-6" d="M175.873,0a9.425,9.425,0,0,0-2.319.367C70.826,30.045.111,155.022,0,298.278.037,389.4,29.2,475.339,79.932,533.438V992.2a40.678,40.678,0,0,0,40.555,40.555h24.547A40.676,40.676,0,0,0,185.589,992.2V9.426A9.422,9.422,0,0,0,175.873,0Zm-9.127,25.209V992.2a21.463,21.463,0,0,1-21.713,21.713H120.487A21.461,21.461,0,0,1,98.774,992.2V530.533a9.423,9.423,0,0,0-2.429-6.33c-48.443-53.71-77.473-137.264-77.5-225.922.094-130.525,63.187-239.988,147.9-273.066Z" transform="translate(0 0)" fill="none"/>
      </g>
    </g>
  </g>
</svg>
