<svg xmlns="http://www.w3.org/2000/svg" width="804.339" height="625.236" viewBox="0 0 804.339 625.236">
  <g id="Group_65" data-name="Group 65" transform="translate(-495.986 -96.579)">
    <g id="Group_54" data-name="Group 54" transform="matrix(0.259, 0.966, -0.966, 0.259, 683.871, 227.359)">
      <path id="Path_1" data-name="Path 1" d="M218.587,167.617C329.446,167.611,411.874.033,411.874.033h25.3S344.522,194.586,218.587,194.513,0,0,0,0H25.3S107.728,167.623,218.587,167.617Z" transform="translate(0 0)" fill="#1e5e0f"/>
      <path id="Path_2" data-name="Path 2" d="M193.287,171.2C303.658,171.2,386.575,0,386.575,0H0S82.917,171.206,193.287,171.2Z" transform="translate(25.299 0)" fill="#f55959"/>
      <path id="Path_3" data-name="Path 3" d="M8.315,0S16.63,11.238,16.63,15.764a8.256,8.256,0,0,1-8.315,8.2A8.256,8.256,0,0,1,0,15.764C0,11.238,8.315,0,8.315,0Z" transform="translate(210.85 125.834)" fill="#222"/>
      <path id="Path_4" data-name="Path 4" d="M8.315,0S16.63,11.238,16.63,15.764a8.256,8.256,0,0,1-8.315,8.2A8.256,8.256,0,0,1,0,15.764C0,11.238,8.315,0,8.315,0Z" transform="translate(247.162 118.015) rotate(-22)" fill="#222"/>
      <path id="Path_5" data-name="Path 5" d="M8.315,0S16.63,11.238,16.63,15.764a8.256,8.256,0,0,1-8.315,8.2A8.256,8.256,0,0,1,0,15.764C0,11.238,8.315,0,8.315,0Z" transform="matrix(0.799, -0.602, 0.602, 0.799, 280.621, 97.448)" fill="#222"/>
      <path id="Path_6" data-name="Path 6" d="M8.315,0S16.63,11.238,16.63,15.764a8.256,8.256,0,0,1-8.315,8.2A8.256,8.256,0,0,1,0,15.764C0,11.238,8.315,0,8.315,0Z" transform="matrix(0.799, -0.602, 0.602, 0.799, 308.275, 68.829)" fill="#222"/>
      <path id="Path_7" data-name="Path 7" d="M8.315,23.961S16.63,12.723,16.63,8.2A8.256,8.256,0,0,0,8.315,0,8.256,8.256,0,0,0,0,8.2C0,12.723,8.315,23.961,8.315,23.961Z" transform="translate(178.302 140.231) rotate(-158)" fill="#222"/>
      <path id="Path_8" data-name="Path 8" d="M8.315,23.961S16.63,12.723,16.63,8.2A8.256,8.256,0,0,0,8.315,0,8.256,8.256,0,0,0,0,8.2C0,12.723,8.315,23.961,8.315,23.961Z" transform="matrix(-0.799, -0.602, 0.602, -0.799, 139.399, 116.584)" fill="#222"/>
      <path id="Path_9" data-name="Path 9" d="M8.315,23.961S16.63,12.723,16.63,8.2A8.256,8.256,0,0,0,8.315,0,8.256,8.256,0,0,0,0,8.2C0,12.723,8.315,23.961,8.315,23.961Z" transform="matrix(-0.799, -0.602, 0.602, -0.799, 114.275, 87.965)" fill="#222"/>
      <path id="Path_10" data-name="Path 10" d="M8.315,0S16.63,11.238,16.63,15.764a8.256,8.256,0,0,1-8.315,8.2A8.256,8.256,0,0,1,0,15.764C0,11.238,8.315,0,8.315,0Z" transform="translate(210.85 82.405)" fill="#222"/>
      <path id="Path_12" data-name="Path 12" d="M8.315,23.961S16.63,12.723,16.63,8.2A8.256,8.256,0,0,0,8.315,0,8.256,8.256,0,0,0,0,8.2C0,12.723,8.315,23.961,8.315,23.961Z" transform="translate(191.722 96.595) rotate(-158)" fill="#222"/>
      <path id="Path_13" data-name="Path 13" d="M8.315,23.961S16.63,12.723,16.63,8.2A8.256,8.256,0,0,0,8.315,0,8.256,8.256,0,0,0,0,8.2C0,12.723,8.315,23.961,8.315,23.961Z" transform="matrix(-0.799, -0.602, 0.602, -0.799, 157.901, 78.374)" fill="#222"/>
      <path id="Path_14" data-name="Path 14" d="M8.315,0S16.63,11.238,16.63,15.764a8.256,8.256,0,0,1-8.315,8.2A8.256,8.256,0,0,1,0,15.764C0,11.238,8.315,0,8.315,0Z" transform="matrix(0.927, -0.375, 0.375, 0.927, 237.768, 74.379)" fill="#222"/>
      <path id="Path_15" data-name="Path 15" d="M8.315,0S16.63,11.238,16.63,15.764a8.256,8.256,0,0,1-8.315,8.2A8.256,8.256,0,0,1,0,15.764C0,11.238,8.315,0,8.315,0Z" transform="matrix(0.799, -0.602, 0.602, 0.799, 266.145, 59.238)" fill="#222"/>
    </g>
    <text id="في_ميه_البطيخ" data-name="في ميه
 البطيخ" transform="translate(760 295)" fill="#214d09" font-size="176" font-family="BMorvarid, B Morvarid"><tspan x="0" y="0">في ميه</tspan><tspan y="0"></tspan><tspan x="0" y="293"> </tspan><tspan y="293">البطيخ</tspan></text>
    <g id="Group_35" data-name="Group 35" transform="matrix(0.966, 0.259, -0.259, 0.966, 697.71, 208.91)">
      <path id="Path_30" data-name="Path 30" d="M85.281-16.489S68.058,13.137,68.058,39.773s6.806,53.788-19.83,53.788A48.228,48.228,0,0,1,0,45.333C0,18.7,85.281-16.489,85.281-16.489Z" transform="translate(0 16.489)" fill="#fc3030"/>
      <path id="Path_31" data-name="Path 31" d="M8.265,0c2.96,0,1.648,6.621,1.648,12.768s1.311,9.491-1.648,9.491S0,18.2,0,12.053,5.305,0,8.265,0Z" transform="translate(51.283 76.826) rotate(39)" fill="#fff"/>
    </g>
    <g id="Group_36" data-name="Group 36" transform="matrix(-0.469, 0.883, -0.883, -0.469, 814.158, 148.244)">
      <path id="Path_30-2" data-name="Path 30" d="M85.281,0S68.058,29.626,68.058,56.262s6.806,53.788-19.83,53.788A48.228,48.228,0,0,1,0,61.822C0,35.186,85.281,0,85.281,0Z" transform="translate(0 0)" fill="#fc3030"/>
      <path id="Path_31-2" data-name="Path 31" d="M8.265,0c2.96,0,1.648,6.621,1.648,12.768s1.311,9.491-1.648,9.491S0,18.2,0,12.053,5.305,0,8.265,0Z" transform="translate(51.283 76.826) rotate(39)" fill="#fff"/>
    </g>
    <g id="Group_37" data-name="Group 37" transform="matrix(-0.998, 0.07, -0.07, -0.998, 870.683, 214.302)">
      <path id="Path_30-3" data-name="Path 30" d="M85.281,0S68.058,29.626,68.058,56.262s6.806,53.788-19.83,53.788A48.228,48.228,0,0,1,0,61.822C0,35.186,85.281,0,85.281,0Z" transform="translate(0 0)" fill="#fc3030"/>
      <path id="Path_31-3" data-name="Path 31" d="M8.265,0c2.96,0,1.648,6.621,1.648,12.768s1.311,9.491-1.648,9.491S0,18.2,0,12.053,5.305,0,8.265,0Z" transform="translate(51.283 76.826) rotate(39)" fill="#fff"/>
    </g>
    <g id="Group_38" data-name="Group 38" transform="translate(1274.615 595.436) rotate(-173)">
      <path id="Path_30-4" data-name="Path 30" d="M85.281,0S68.058,29.626,68.058,56.262s6.806,53.788-19.83,53.788A48.228,48.228,0,0,1,0,61.822C0,35.186,85.281,0,85.281,0Z" transform="translate(0)" fill="#fc3030"/>
      <path id="Path_31-4" data-name="Path 31" d="M8.265,0c2.96,0,1.648,6.621,1.648,12.768s1.311,9.491-1.648,9.491S0,18.2,0,12.053,5.305,0,8.265,0Z" transform="translate(51.283 76.826) rotate(39)" fill="#fff"/>
    </g>
    <g id="Group_39" data-name="Group 39" transform="matrix(0.342, -0.94, 0.94, 0.342, 1167.744, 671.718)">
      <path id="Path_30-5" data-name="Path 30" d="M85.281,0S68.058,29.626,68.058,56.262s6.806,53.788-19.83,53.788A48.228,48.228,0,0,1,0,61.822C0,35.186,85.281,0,85.281,0Z" transform="translate(0 0)" fill="#fc3030"/>
      <path id="Path_31-5" data-name="Path 31" d="M8.265,0c2.96,0,1.648,6.621,1.648,12.768s1.311,9.491-1.648,9.491S0,18.2,0,12.053,5.305,0,8.265,0Z" transform="translate(51.282 76.826) rotate(39)" fill="#fff"/>
    </g>
    <g id="Group_40" data-name="Group 40" transform="matrix(0.978, -0.208, 0.208, 0.978, 1102.576, 614.17)">
      <path id="Path_30-6" data-name="Path 30" d="M85.281,0S68.058,29.626,68.058,56.262s6.806,53.788-19.83,53.788A48.228,48.228,0,0,1,0,61.822C0,35.186,85.281,0,85.281,0Z" transform="translate(0 0)" fill="#fc3030"/>
      <path id="Path_31-6" data-name="Path 31" d="M8.265,0c2.96,0,1.648,6.621,1.648,12.768s1.311,9.491-1.648,9.491S0,18.2,0,12.053,5.305,0,8.265,0Z" transform="translate(51.283 76.826) rotate(39)" fill="#fff"/>
    </g>
  </g>
</svg>
