<svg xmlns="http://www.w3.org/2000/svg" width="498" height="478.779" viewBox="0 0 498 478.779">
  <g id="slice" transform="translate(-711 -356.864)">
    <path id="Path_16" data-name="Path 16" d="M167,306.864C276.5,306.914,386,268,386,268l30,42s-124.5,48.643-249,48.643S-82,310-82,310l30-42.2S57.5,306.814,167,306.864Z" transform="translate(793 477)" fill="#1e5e0f"/>
    <path id="Path_17" data-name="Path 17" d="M191-4.136,410,384s-109.5,38.042-219,38.042S-28,384-28,384Z" transform="translate(769 361)" fill="#f55959"/>
    <path id="Path_18" data-name="Path 18" d="M13.8-63.712S27.6-45.062,27.6-37.55a13.7,13.7,0,0,1-13.8,13.6A13.7,13.7,0,0,1,0-37.55C0-45.062,13.8-63.712,13.8-63.712Z" transform="translate(945.867 766.948)" fill="#222"/>
    <path id="Path_19" data-name="Path 19" d="M13.8,0S27.6,18.649,27.6,26.162a13.7,13.7,0,0,1-13.8,13.6A13.7,13.7,0,0,1,0,26.162C0,18.649,13.8,0,13.8,0Z" transform="translate(1006.128 692.986) rotate(-22)" fill="#222"/>
    <path id="Path_20" data-name="Path 20" d="M13.8,0S27.6,18.649,27.6,26.162a13.7,13.7,0,0,1-13.8,13.6A13.7,13.7,0,0,1,0,26.162C0,18.649,13.8,0,13.8,0Z" transform="matrix(0.799, -0.602, 0.602, 0.799, 1061.654, 664.942)" fill="#222"/>
    <path id="Path_21" data-name="Path 21" d="M13.8,39.764S27.6,21.114,27.6,13.6A13.7,13.7,0,0,0,13.8,0,13.7,13.7,0,0,0,0,13.6C0,21.114,13.8,39.764,13.8,39.764Z" transform="translate(891.852 729.854) rotate(-158)" fill="#222"/>
    <path id="Path_22" data-name="Path 22" d="M13.8,39.764S27.6,21.114,27.6,13.6A13.7,13.7,0,0,0,13.8,0,13.7,13.7,0,0,0,0,13.6C0,21.114,13.8,39.764,13.8,39.764Z" transform="matrix(-0.799, -0.602, 0.602, -0.799, 827.291, 696.698)" fill="#222"/>
    <path id="Path_23" data-name="Path 23" d="M13.8-63.712S27.6-45.062,27.6-37.55a13.7,13.7,0,0,1-13.8,13.6A13.7,13.7,0,0,1,0-37.55C0-45.062,13.8-63.712,13.8-63.712Z" transform="translate(945.867 705.612)" fill="#222"/>
    <path id="Path_24" data-name="Path 24" d="M13.8,39.764S27.6,21.114,27.6,13.6A13.7,13.7,0,0,0,13.8,0,13.7,13.7,0,0,0,0,13.6C0,21.114,13.8,39.764,13.8,39.764Z" transform="translate(914.124 668.517) rotate(-158)" fill="#222"/>
    <path id="Path_25" data-name="Path 25" d="M13.8,0S27.6,18.649,27.6,26.162a13.7,13.7,0,0,1-13.8,13.6A13.7,13.7,0,0,1,0,26.162C0,18.649,13.8,0,13.8,0Z" transform="matrix(0.927, -0.375, 0.375, 0.927, 990.538, 631.649)" fill="#222"/>
  </g>
</svg>
