<svg xmlns="http://www.w3.org/2000/svg" width="201.784" height="167.115" viewBox="0 0 201.784 167.115">
  <g id="watermelon_half" transform="matrix(0.839, 0.545, -0.545, 0.839, 40.512, 0)">
    <path id="Path_1" data-name="Path 1" d="M96.147,64.1C144.91,64.1,181.167.012,181.167.012h11.128s-40.754,74.4-96.147,74.371S0,0,0,0H11.128S47.385,64.1,96.147,64.1Z" transform="translate(0 0)" fill="#1e5e0f"/>
    <path id="Path_2" data-name="Path 2" d="M85.019,64.131C133.567,64.13,170.039,0,170.039,0H0S36.472,64.131,85.019,64.131Z" transform="translate(11.128 0)" fill="#f55959"/>
    <path id="Path_3" data-name="Path 3" d="M3.657,0S7.315,4.943,7.315,6.934a3.632,3.632,0,0,1-3.657,3.605A3.632,3.632,0,0,1,0,6.934C0,4.943,3.657,0,3.657,0Z" transform="translate(92.744 47.105)" fill="#222"/>
    <path id="Path_4" data-name="Path 4" d="M3.657,0S7.315,4.943,7.315,6.934a3.632,3.632,0,0,1-3.657,3.605A3.632,3.632,0,0,1,0,6.934C0,4.943,3.657,0,3.657,0Z" transform="translate(108.716 44.388) rotate(-22)" fill="#222"/>
    <path id="Path_5" data-name="Path 5" d="M3.657,0S7.315,4.943,7.315,6.934a3.632,3.632,0,0,1-3.657,3.605A3.632,3.632,0,0,1,0,6.934C0,4.943,3.657,0,3.657,0Z" transform="matrix(0.799, -0.602, 0.602, 0.799, 123.434, 36.955)" fill="#222"/>
    <path id="Path_6" data-name="Path 6" d="M3.657,0S7.315,4.943,7.315,6.934a3.632,3.632,0,0,1-3.657,3.605A3.632,3.632,0,0,1,0,6.934C0,4.943,3.657,0,3.657,0Z" transform="matrix(0.799, -0.602, 0.602, 0.799, 135.598, 26.3)" fill="#222"/>
    <path id="Path_7" data-name="Path 7" d="M3.657,10.539S7.315,5.6,7.315,3.605A3.632,3.632,0,0,0,3.657,0,3.632,3.632,0,0,0,0,3.605C0,5.6,3.657,10.539,3.657,10.539Z" transform="translate(78.428 54.16) rotate(-158)" fill="#222"/>
    <path id="Path_8" data-name="Path 8" d="M3.657,10.539S7.315,5.6,7.315,3.605A3.632,3.632,0,0,0,3.657,0,3.632,3.632,0,0,0,0,3.605C0,5.6,3.657,10.539,3.657,10.539Z" transform="matrix(-0.799, -0.602, 0.602, -0.799, 61.316, 45.372)" fill="#222"/>
    <path id="Path_9" data-name="Path 9" d="M3.657,10.539S7.315,5.6,7.315,3.605A3.632,3.632,0,0,0,3.657,0,3.632,3.632,0,0,0,0,3.605C0,5.6,3.657,10.539,3.657,10.539Z" transform="matrix(-0.799, -0.602, 0.602, -0.799, 50.265, 34.717)" fill="#222"/>
    <path id="Path_10" data-name="Path 10" d="M3.657,0S7.315,4.943,7.315,6.934a3.632,3.632,0,0,1-3.657,3.605A3.632,3.632,0,0,1,0,6.934C0,4.943,3.657,0,3.657,0Z" transform="translate(92.744 30.847)" fill="#222"/>
    <path id="Path_12" data-name="Path 12" d="M3.657,10.539S7.315,5.6,7.315,3.605A3.632,3.632,0,0,0,3.657,0,3.632,3.632,0,0,0,0,3.605C0,5.6,3.657,10.539,3.657,10.539Z" transform="translate(84.331 37.902) rotate(-158)" fill="#222"/>
    <path id="Path_13" data-name="Path 13" d="M3.657,10.539S7.315,5.6,7.315,3.605A3.632,3.632,0,0,0,3.657,0,3.632,3.632,0,0,0,0,3.605C0,5.6,3.657,10.539,3.657,10.539Z" transform="matrix(-0.799, -0.602, 0.602, -0.799, 69.454, 31.147)" fill="#222"/>
    <path id="Path_14" data-name="Path 14" d="M3.657,0S7.315,4.943,7.315,6.934a3.632,3.632,0,0,1-3.657,3.605A3.632,3.632,0,0,1,0,6.934C0,4.943,3.657,0,3.657,0Z" transform="matrix(0.927, -0.375, 0.375, 0.927, 104.584, 28.131)" fill="#222"/>
    <path id="Path_15" data-name="Path 15" d="M3.657,0S7.315,4.943,7.315,6.934a3.632,3.632,0,0,1-3.657,3.605A3.632,3.632,0,0,1,0,6.934C0,4.943,3.657,0,3.657,0Z" transform="matrix(0.799, -0.602, 0.602, 0.799, 117.066, 22.73)" fill="#222"/>
  </g>
</svg>
