<svg xmlns="http://www.w3.org/2000/svg" width="569" height="684" viewBox="0 0 569 684">
  <g id="watermelon" transform="translate(-676 -198)">
    <ellipse id="Ellipse_1" data-name="Ellipse 1" cx="284.5" cy="342" rx="284.5" ry="342" transform="translate(676 198)" fill="#3f7632"/>
    <path id="Path_26" data-name="Path 26" d="M333.659,51.779c7.054,0,14.315.108,21.743.32,8.625.246,17.435-.823,26.493-.32,8.417.468,17.408,5.021,26.332,5.7,9.672.737,19.057-.946,28.975,0,4.172.4,8.35.812,12.61,1.249.951.1,2.014-3.911,3.277-3.78,2.876.3,5.959,4.747,9.181,5.1q22.893,2.5,45.587,5.468c2.233.29,5.789-3.323,8.137-3.012,2.761.366,4.175,4.64,7.191,5.05,16.3,2.215,32.045,4.511,47.054,6.806,3.873.592,6.717,3.94,10.61,4.551,5.887.923,12.551-.924,18.236,0q15.583,2.532,28.9,4.834c3.961.681,9.518-2.894,13.332-2.223,3.83.674,5.6,5.539,9.145,6.178,14.425,2.6,23.172,4.3,23.172,4.3s-2.561-14.246-5.647-25.692a178.4,178.4,0,0,0-6.7-20.094S484.98,0,333.659,0,8.292,47.527,8.292,47.527,4.352,58.6,1.463,69.722-3.265,92-3.265,92l49.048-7.064L89.5,78.64c2.465-.355,5.66-8.917,5.66-8.917a11.4,11.4,0,0,0,12.08,6.363l24.583-3.54,34.791-5.01c49.521-7.132,27.049,0,27.049,0s12.639-5.716,17.679-6.442L236.5,57.47l11.785,3.622s5.745-4.444,12.679-4.932a72.3,72.3,0,0,0,12.363-1.951s26.46-1.685,33.929-1.945c2.723-.1,9.3-2.925,9.3-2.925S327.8,51.782,333.659,51.779Z" transform="translate(1092 204.733) rotate(90)" fill="#1e5e0f"/>
    <path id="Path_27" data-name="Path 27" d="M198.089,27.23c12.205-.006,25.036,3.241,41.4,4.5,1.614.124,6.676-3.809,8.627-3.648,3.16.261,5.169,2.117,8.754,2.446,15.494,1.423,32.116,3.253,48.868,5.291,2.559.311,5.152-2.061,8.022-1.7,2.573.323,5.71,3.414,8.561,3.781,18.786,2.424,38.633,2.4,55.582,4.9,2.3.339,2.891,6.4,5.252,6.752,2.128.319,4.954-2.4,7.146-2.07,34.854,5.284,59.535,9.547,59.535,9.547s-11.132-10.316-21.086-18.422-18.731-14-18.731-14S287.927-10,198.089-10-38.242,31.729-38.242,31.729A187.989,187.989,0,0,0-55.555,45.046c-8.712,7.6-17.534,17.09-17.534,17.09s17.568-3.188,44.934-7.743c3.376-.562,7.874-2.867,11.825-3.514,3.183-.521,6.006.584,9.627,0,12.922-2.083,27.336-4.342,42.417-6.6,2.3-.345,4.713,1.138,7.222.767,1.788-.264,3.882-2.412,5.9-2.706,14.833-2.161,30.286-4.3,45.564-6.26,2-.256,7.065-4.072,9.3-4.351,3.029-.378,3.375,2.766,6.525,2.388,14.891-1.784,29.478-3.343,43.041-4.525,3.5-.305,7.411,2.393,10.827,2.137,3.317-.248,6.185-3.455,9.371-3.648C182.413,27.538,190.74,27.233,198.089,27.23Z" transform="translate(1202.874 349.424) rotate(90)" fill="#1e5e0f"/>
    <path id="Path_28" data-name="Path 28" d="M336.924,37.756c21.294.008,44.478,1.448,68.605-.293,2.508-.181,11.257,2.584,13.8,2.386,3.708-.288,1.2-3.546,5.034-3.874,18.576-1.586,37.419-3.537,56.11-5.714,2.55-.3,7.41,2.445,10.126,2.119,4.152-.5,5.975-4.05,10.352-4.6,26.95-3.383,52.97-7.122,76.619-10.771,3.339-.515,7.063,3.167,10.557,2.617,3.547-.559,6.585-5.308,10.205-5.891,16.094-2.592,30.478-5.039,42.677-7.178,4.034-.707,8.667-5.016,12.386-5.684,2.888-.518,7.412,2.139,7.412,2.139L676.9,0s-2.561,14.246-5.647,25.692a178.4,178.4,0,0,1-6.7,20.094S488.245,92,336.924,92,11.557,44.473,11.557,44.473,7.617,33.4,4.728,22.278,0,0,0,0,13.833,2.726,37.491,6.9c2.782.49,6.013,1.055,9.4,1.641,2.586.447,7.016-.523,10.089,0,11.224,1.908,22.732,5.526,36.794,7.737,3.243.51,7.635-2.076,11.219-1.525,1.584.243,2.539,3.656,4.377,3.935,13.8,2.094,28.6,4.239,43.931,6.318,2.139.29,4.927,3.7,7.207,4,1.933.257,7.209-7.034,9.378-6.752,10.6,1.38,17.97,7.213,29.074,8.5,2.537.293,3.893,5.012,6.561,5.31,3.5.391,8.456-3.628,12.1-3.242,6.693.709,13.623,1.4,20.539,2.056,2.095.2,6.61-2.27,8.993-2.056,1.991.179,2.039,3.056,4.214,3.242q11.033.943,21.826,1.7c2.831.2,5.149,1.909,8.1,2.093,3.131.2,7.038-1.129,10.282-.954,7.423.4,14.99.727,22.4.954C321.794,40.089,329.47,37.754,336.924,37.756Z" transform="translate(920.874 201.467) rotate(90)" fill="#1e5e0f"/>
    <path id="Path_29" data-name="Path 29" d="M271.178,34.907c1.14,0,3.942-1.458,5.392-1.461,16.933-.034,34.559,1.028,58.045-1.174.941-.088,3.7,2.763,4.972,2.635,1.6-.161,1.726-3.306,3.642-3.518,19.772-2.189,43.067-5.918,63.2-8.6,1.881-.251,11.641.293,13.8,0,5.22-.708,3-2.287,8.285-3.032,11.536-1.627,22.772-3.278,33.187-4.85,2.5-.378,5.378,2.057,8.042,1.648,2.064-.316,4.15-3.51,6.325-3.848C504,8.374,522.927,5.1,522.927,5.1S511.8,15.421,501.841,23.527s-18.731,14-18.731,14S361.016,72.137,271.178,72.137,34.847,30.408,34.847,30.408A187.989,187.989,0,0,1,17.534,17.09C8.823,9.488,0,0,0,0S12.474,2.263,33.016,5.742c3.036.514,6.169,3.207,9.864,3.823,3.846.642,8.564-.743,13.105,0,11.521,1.886,24.565,3.971,38.4,6.1,5.211.8,17.139.586,22.763,1.425,3.726.556,1.293,2.195,5.282,2.775,14.091,2.05,28.085,3.43,42.731,5.316,3.778.487,8.451,1.648,12.318,2.124,1.523.188,5.4-2.339,7.188-2.124,19.273,2.318,36.039,7.015,52.879,8.264,1.679.125,3.564,3.625,5.263,3.739,2.079.139,4.162-3.1,6.361-2.977C257.1,34.655,264.541,34.9,271.178,34.907Z" transform="translate(780.137 276.335) rotate(90)" fill="#1e5e0f"/>
  </g>
</svg>
