<svg xmlns="http://www.w3.org/2000/svg" width="864" height="334.213" viewBox="0 0 864 334.213">
  <g id="watermelon_half" data-name="watermelon half" transform="translate(-528 -495)">
    <path id="Path_51" data-name="Path 51" d="M705,859.142c206.415-.01,359.893-271.281,359.893-271.281H1112S939.486,902.8,705,902.681,298,587.809,298,587.809h47.106S498.585,859.152,705,859.142Z" transform="translate(255 -92.809)" fill="#9ac490"/>
    <path id="Path_1" data-name="Path 1" d="M730,875.809c219.094-.011,382-287.944,382-287.944h50S978.89,922.147,730,922.022,298,587.809,298,587.809h50S510.906,875.819,730,875.809Z" transform="translate(230 -92.809)" fill="#1e5e0f"/>
    <path id="Path_2" data-name="Path 2" d="M739.421,876.955c218.128,0,382-288.146,382-288.146h-764S521.293,876.958,739.421,876.955Z" transform="translate(220.579 -93.809)" fill="#f55959"/>
    <path id="Path_3" data-name="Path 3" d="M16.433-63.712S32.867-41.5,32.867-32.556a16.317,16.317,0,0,1-16.433,16.2A16.317,16.317,0,0,1,0-32.556C0-41.5,16.433-63.712,16.433-63.712Z" transform="translate(944.71 770.358)" fill="#222"/>
    <path id="Path_4" data-name="Path 4" d="M16.433,0S32.867,22.209,32.867,31.156a16.317,16.317,0,0,1-16.433,16.2A16.317,16.317,0,0,1,0,31.156C0,22.209,16.433,0,16.433,0Z" transform="translate(1016.473 694.438) rotate(-22)" fill="#222"/>
    <path id="Path_5" data-name="Path 5" d="M16.433,0S32.867,22.209,32.867,31.156a16.317,16.317,0,0,1-16.433,16.2A16.317,16.317,0,0,1,0,31.156C0,22.209,16.433,0,16.433,0Z" transform="matrix(0.799, -0.602, 0.602, 0.799, 1082.599, 661.041)" fill="#222"/>
    <path id="Path_6" data-name="Path 6" d="M16.433,0S32.867,22.209,32.867,31.156a16.317,16.317,0,0,1-16.433,16.2A16.317,16.317,0,0,1,0,31.156C0,22.209,16.433,0,16.433,0Z" transform="matrix(0.799, -0.602, 0.602, 0.799, 1137.253, 613.17)" fill="#222"/>
    <path id="Path_7" data-name="Path 7" d="M16.433,47.354S32.867,25.145,32.867,16.2A16.317,16.317,0,0,0,16.433,0,16.317,16.317,0,0,0,0,16.2C0,25.145,16.433,47.354,16.433,47.354Z" transform="translate(880.384 738.344) rotate(-158)" fill="#222"/>
    <path id="Path_8" data-name="Path 8" d="M16.433,47.354S32.867,25.145,32.867,16.2A16.317,16.317,0,0,0,16.433,0,16.317,16.317,0,0,0,0,16.2C0,25.145,16.433,47.354,16.433,47.354Z" transform="matrix(-0.799, -0.602, 0.602, -0.799, 803.499, 698.86)" fill="#222"/>
    <path id="Path_9" data-name="Path 9" d="M16.433,47.354S32.867,25.145,32.867,16.2A16.317,16.317,0,0,0,16.433,0,16.317,16.317,0,0,0,0,16.2C0,25.145,16.433,47.354,16.433,47.354Z" transform="matrix(-0.799, -0.602, 0.602, -0.799, 753.845, 650.989)" fill="#222"/>
    <path id="Path_10" data-name="Path 10" d="M16.433-63.712S32.867-41.5,32.867-32.556a16.317,16.317,0,0,1-16.433,16.2A16.317,16.317,0,0,1,0-32.556C0-41.5,16.433-63.712,16.433-63.712Z" transform="translate(944.71 697.312)" fill="#222"/>
    <path id="Path_12" data-name="Path 12" d="M16.433,47.354S32.867,25.145,32.867,16.2A16.317,16.317,0,0,0,16.433,0,16.317,16.317,0,0,0,0,16.2C0,25.145,16.433,47.354,16.433,47.354Z" transform="translate(906.906 665.299) rotate(-158)" fill="#222"/>
    <path id="Path_13" data-name="Path 13" d="M16.433,47.354S32.867,25.145,32.867,16.2A16.317,16.317,0,0,0,16.433,0,16.317,16.317,0,0,0,0,16.2C0,25.145,16.433,47.354,16.433,47.354Z" transform="matrix(-0.799, -0.602, 0.602, -0.799, 840.065, 634.945)" fill="#222"/>
    <path id="Path_14" data-name="Path 14" d="M16.433,0S32.867,22.209,32.867,31.156a16.317,16.317,0,0,1-16.433,16.2A16.317,16.317,0,0,1,0,31.156C0,22.209,16.433,0,16.433,0Z" transform="matrix(0.927, -0.375, 0.375, 0.927, 997.908, 621.393)" fill="#222"/>
    <path id="Path_15" data-name="Path 15" d="M16.433,0S32.867,22.209,32.867,31.156a16.317,16.317,0,0,1-16.433,16.2A16.317,16.317,0,0,1,0,31.156C0,22.209,16.433,0,16.433,0Z" transform="matrix(0.799, -0.602, 0.602, 0.799, 1053.99, 597.126)" fill="#222"/>
  </g>
</svg>
