<svg xmlns="http://www.w3.org/2000/svg" width="92.328" height="135.64" viewBox="0 0 92.328 135.64">
  <g id="water_left" data-name="water left" transform="translate(-606.441 -441.906)">
    <g id="Group_38" data-name="Group 38" transform="translate(667.564 487.106) rotate(150)">
      <path id="Path_30" data-name="Path 30" d="M40.446-16.489s-8.168,14.05-8.168,26.683,3.228,25.51-9.4,25.51A22.873,22.873,0,0,1,0,12.831C0,.2,40.446-16.489,40.446-16.489Z" transform="translate(0 16.489)" fill="#fc3030"/>
      <path id="Path_31" data-name="Path 31" d="M3.92,0c1.4,0,.782,3.14.782,6.055s.622,4.5-.782,4.5S0,8.631,0,5.716,2.516,0,3.92,0Z" transform="translate(24.321 36.435) rotate(39)" fill="#fff"/>
    </g>
    <g id="Group_39" data-name="Group 39" transform="translate(648.857 546.502) rotate(-107)">
      <path id="Path_30-2" data-name="Path 30" d="M40.446,0s-8.168,14.05-8.168,26.683,3.228,25.51-9.4,25.51A22.873,22.873,0,0,1,0,29.32C0,16.687,40.446,0,40.446,0Z" transform="translate(0)" fill="#fc3030"/>
      <path id="Path_31-2" data-name="Path 31" d="M3.92,0c1.4,0,.782,3.14.782,6.055s.622,4.5-.782,4.5S0,8.631,0,5.716,2.516,0,3.92,0Z" transform="translate(24.321 36.435) rotate(39)" fill="#fff"/>
    </g>
    <g id="Group_40" data-name="Group 40" transform="matrix(0.656, -0.755, 0.755, 0.656, 607.749, 543.305)">
      <path id="Path_30-3" data-name="Path 30" d="M40.446,0s-8.168,14.05-8.168,26.683,3.228,25.51-9.4,25.51A22.873,22.873,0,0,1,0,29.32C0,16.687,40.446,0,40.446,0Z" fill="#fc3030"/>
      <path id="Path_31-3" data-name="Path 31" d="M3.92,0c1.4,0,.782,3.14.782,6.055s.622,4.5-.782,4.5S0,8.631,0,5.716,2.516,0,3.92,0Z" transform="translate(24.321 36.435) rotate(39)" fill="#fff"/>
    </g>
  </g>
</svg>
